<?xml version="1.0" encoding="UTF-8"?>
<svg xmlns="http://www.w3.org/2000/svg" version="1.1" viewBox="0 0 32 32">
  <circle cx="16" cy="16" r="16" fill="#000000"/>
  <g transform="translate(6, 6) scale(0.625)" fill="#ffffff">
    <path d="M4.41,0c-.16.45-.34,1.22-.13,2.09.01.05.03.13.06.22,0,0,.08.24.19.48.61,1.29,6.59,3.61,6.59,3.61,2.4.93,3.59,1.4,4.75,2.41.67.58,2.34,2.08,2.85,4.44.26,1.22.19,2.49.13,3.17-.06.67-.16,1.39-.32,2.15-.33,1.62-.83,3.01-1.33,4.12-.59-1.82-1.18-3.63-1.77-5.45l-3.04-5.39-7.23-5.45-1.39-3.8.13-1.58c.05-.15.12-.31.21-.48.1-.2.2-.38.3-.53Z"/>
    <path d="M28.43,7.35l-7.54,13.06v11.59c-.34,0-2.72,0-4.31-1.89-.96-1.15-1.16-2.41-1.2-2.94v-6.54c-.32-.7-.8-1.56-1.52-2.44-1.22-1.49-2.57-2.37-3.49-2.85-.17-.1-.44-.25-.76-.44-2.76-1.61-3.16-1.93-3.36-2.09-.47-.38-1.13-1-1.77-1.96.3.21.68.44,1.14.63.35.15.67.25.95.32-.39-.17-1.05-.53-1.65-1.2-.48-.54-.74-1.09-.89-1.46-.2-.43-.39-.92-.57-1.46-.26-.79-.41-1.52-.51-2.15.13.49.49,1.53,1.46,2.41.5.46,1.01.73,1.39.89-.4-.3-.97-.81-1.46-1.58-.64-1.02-.83-1.99-.89-2.54-.15-.46-.46-1.66,0-3.04.26-.77.66-1.32.95-1.65-.12.26-.41.98-.25,1.9.18,1.03.81,1.65,1.01,1.84.8.6,1.49,1.01,1.96,1.27,1.81,1,2.81,1.1,5.13,2.28.61.31,1.1.59,1.39.76,1.25.78,3.27,2.35,4.12,4.94.47,1.41.43,2.65.38,4.12-.07,2.38-.55,4.3-.95,5.58.74-.84,1.74-2.16,2.54-3.99.27-.61.66-1.55.89-2.79.18-1.02.38-2.96-.38-5.39.21-.46.62-1.22,1.39-1.9.33-.29,1.34-1.16,2.79-1.31.1-.01.19-.02.25-.02,1.25.02,2.49.04,3.74.06Z"/>
  </g>
</svg>