<?xml version="1.0" encoding="UTF-8"?>
<svg id="Layer_1" xmlns="http://www.w3.org/2000/svg" version="1.1" viewBox="0 0 24 24">
  <defs>
    <style>
      .st0 {
        fill: #3f3f3f;
      }
      .st1 {
        fill: #292526;
      }
    </style>
  </defs>
  <path class="st0" d="M3.31,0c-.12.34-.26.92-.1,1.57.01.04.02.1.05.17,0,0,.06.18.14.36.46.97,4.94,2.71,4.94,2.71,1.8.7,2.69,1.05,3.56,1.81.5.44,1.76,1.56,2.14,3.33.2.92.14,1.87.1,2.38-.05.5-.12,1.04-.24,1.61-.25,1.22-.62,2.26-1,3.09-.44-1.37-.89-2.72-1.33-4.09l-2.28-4.04-5.42-4.09-1.04-2.85.1-1.19c.04-.11.09-.23.16-.36.08-.15.15-.29.23-.4Z"/>
  <path class="st1" d="M21.32,5.51l-5.66,9.8v8.69c-.26,0-2.04,0-3.23-1.42-.72-.86-.87-1.81-.9-2.21v-4.91c-.24-.53-.6-1.17-1.14-1.83-.92-1.12-1.93-1.78-2.62-2.14-.13-.08-.33-.19-.57-.33-2.07-1.21-2.37-1.45-2.52-1.57-.35-.29-.85-.75-1.33-1.47.23.16.51.33.86.47.26.11.5.19.71.24-.29-.13-.79-.4-1.24-.9-.36-.41-.56-.82-.67-1.1-.15-.32-.29-.69-.43-1.1-.2-.59-.31-1.14-.38-1.61.1.37.37,1.15,1.1,1.81.38.35.76.55,1.04.67-.3-.23-.73-.61-1.1-1.19-.48-.77-.62-1.49-.67-1.91-.11-.35-.35-1.25,0-2.28.2-.58.5-.99.71-1.24-.09.2-.31.74-.19,1.43.14.77.61,1.24.76,1.38.6.45,1.12.76,1.47.95,1.36.75,2.11.83,3.85,1.71.46.23.83.44,1.04.57.94.59,2.45,1.76,3.09,3.71.35,1.06.32,1.99.29,3.09-.05,1.79-.41,3.23-.71,4.19.56-.63,1.31-1.62,1.91-2.99.2-.46.5-1.16.67-2.09.14-.77.29-2.22-.29-4.04.16-.35.47-.92,1.04-1.43.25-.22,1.01-.87,2.09-.98.08-.01.14-.02.19-.02.94.02,1.87.03,2.81.05Z"/>
</svg>